<?xml version="1.0" standalone="no"?>
<!DOCTYPE svg PUBLIC "-//W3C//DTD SVG 20010904//EN"
 "http://www.w3.org/TR/2001/REC-SVG-20010904/DTD/svg10.dtd">
<svg version="1.0" xmlns="http://www.w3.org/2000/svg"
 width="512.000000pt" height="512.000000pt" viewBox="0 0 512.000000 512.000000"
 preserveAspectRatio="xMidYMid meet">
<metadata>
Created by potrace 1.14, written by Peter Selinger 2001-2017
</metadata>
<g transform="translate(0.000000,512.000000) scale(0.100000,-0.100000)"
fill="#000000" stroke="none">
<path d="M2310 4625 c-303 -40 -582 -137 -837 -291 -65 -40 -186 -125 -203
-144 -3 -3 -26 -22 -51 -42 -63 -50 -173 -159 -240 -238 -246 -288 -403 -625
-473 -1015 -21 -114 -28 -416 -13 -569 4 -43 15 -110 23 -150 9 -39 18 -82 20
-96 3 -14 18 -68 33 -120 182 -611 658 -1121 1255 -1345 94 -35 284 -89 351
-99 17 -2 66 -10 110 -17 126 -21 481 -17 595 6 13 2 42 7 64 11 22 3 43 7 47
9 3 2 21 7 40 10 60 10 227 62 304 94 74 30 272 132 330 169 320 204 570 477
743 812 165 319 234 620 226 995 -1 94 -5 186 -9 205 -3 19 -10 64 -16 100 -5
36 -23 115 -39 176 -133 502 -437 924 -878 1217 -193 128 -489 250 -707 293
-11 2 -31 6 -45 9 -14 2 -43 7 -65 10 -23 3 -52 8 -65 11 -52 12 -408 11 -500
-1z m485 -321 c670 -92 1225 -554 1435 -1194 21 -63 40 -128 43 -145 3 -16 13
-68 22 -115 22 -113 27 -393 9 -522 -44 -320 -175 -622 -376 -874 l-51 -63
-45 61 c-89 119 -251 270 -380 357 l-62 42 -68 -54 c-166 -133 -300 -199 -502
-247 -107 -25 -308 -34 -420 -19 -218 31 -427 122 -601 264 l-69 57 -81 -57
c-45 -32 -96 -69 -113 -84 -63 -53 -197 -193 -243 -255 l-49 -63 -34 40 c-119
136 -250 370 -314 557 -72 215 -96 372 -91 615 4 167 4 172 36 325 67 328 235
635 483 882 277 275 648 453 1031 495 28 3 51 6 53 8 10 9 302 1 387 -11z"/>
<path d="M2420 3589 c-193 -35 -352 -118 -485 -253 -200 -202 -289 -487 -240
-769 32 -182 111 -335 244 -468 164 -163 353 -245 590 -255 374 -15 717 211
852 561 94 244 70 535 -61 757 -136 227 -353 379 -607 423 -83 14 -224 16
-293 4z"/>
</g>
</svg>
